<?xml version="1.0" encoding="UTF-8"?>
<svg xmlns="http://www.w3.org/2000/svg" version="1.1" viewBox="0 0 1417.32 481.89">
  <defs>
    <style>
      .cls-1 {
        fill: #fff;
      }
    </style>
  </defs>
  <!-- Generator: Adobe Illustrator 28.7.4, SVG Export Plug-In . SVG Version: 1.2.0 Build 166)  -->
  <g>
    <g id="Calque_1">
      <path d="M264.18,369.73c-19.97-.43-38.5-6.79-56.75-14.15-23.99-9.68-46.31-22.43-67.37-37.39-17.15-12.18-33.38-25.38-46.17-42.35-17.79-23.6-17.25-44.09,1.83-67.35,13.06-15.93,29.27-28.14,46.68-38.76,42.62-26.01,88.06-45.23,137.04-55.59,11.08-2.34,22.32-3.97,33.68-1.66,10.61,2.16,15.33,8.01,12.72,18.55-2.45,9.9-6.39,19.54-10.58,28.88-5.99,13.34-12.68,26.37-19.29,39.43-9.45,18.67-9.92,37.73-2.41,56.99,5.67,14.55,12.23,28.75,17.76,43.36,2.97,7.87,5.46,16.12,6.65,24.42,2.55,17.85-5.78,31.94-22.15,39.53-8.83,4.09-18.85,5.98-31.63,6.09ZM238.48,283.6c16.82.09,26.24-9.99,24.58-27.74-.47-5.1-1.57-10.16-2.62-15.19-3.09-14.79-5.57-29.5,3.09-43.45,1.58-2.54,3.21-5.06,4.57-7.72,4.22-8.24,8.91-16.31,12.29-24.89,2.51-6.36-.58-10.16-7.44-9.95-6.42.19-13.09.58-19.15,2.48-12.01,3.77-23.99,7.98-35.42,13.23-16.83,7.73-32.57,17.35-44.88,31.66-9.63,11.19-10.82,23.73-3.16,36.25,8.97,14.65,21.51,25.69,36.05,34.52,9.55,5.8,19.38,11.1,32.1,10.8Z"></path>
      <path d="M552.13,332.54c-6.98,0-13.58.18-20.16-.17-1.15-.06-2.63-2.11-3.22-3.55-6.05-14.75-12.07-29.52-17.79-44.4-1.32-3.44-3.13-4.36-6.6-4.34-24.15.13-48.3.16-72.44-.02-3.83-.03-5.53,1.28-6.85,4.75-5.61,14.75-11.57,29.36-17.24,44.09-1.05,2.74-2.4,3.86-5.42,3.73-5.8-.25-11.63-.07-17.98-.07.64-1.95,1.07-3.51,1.66-5,22.63-56.77,45.32-113.52,67.84-170.34,1.46-3.68,3.24-5.14,7.25-4.82,4.96.4,9.99.19,14.98.06,2.42-.06,3.84.46,4.87,3.01,23.41,58.08,46.92,116.12,70.4,174.17.3.73.38,1.55.71,2.91ZM501.26,260.6c-11.27-28.49-22.27-56.29-33.65-85.07-11.17,29-21.88,56.83-32.75,85.07h66.41Z"></path>
      <path d="M855.34,274.42h-98.82c-3.24,23.69,17.22,44.35,41.64,42.7,14.96-1.01,25.89-7.56,31.8-21.75.48-1.16,2.26-2.46,3.5-2.51,5.8-.26,11.61-.12,18.08-.12-4.21,16.06-12.48,28.32-26.85,35.98-36.01,19.19-79.06-.84-87.63-40.83-3.66-17.09-3.2-34.07,2.71-50.68,9.01-25.35,31.79-39.76,58.59-38.2,32.98,1.92,51.41,25.69,55.49,54.31.96,6.7.99,13.54,1.5,21.09ZM757.02,255.88h75.63c-.11-18.31-13.54-38.6-37.68-38.58-21.48.02-37.29,16.33-37.96,38.58Z"></path>
      <path d="M967.66,242.03h-19.12c-2.29-11.58,5.62-27.66,17.12-34.87,11.51-7.22,24.46-8.64,37.5-7.94,8.52.46,17.31,1.79,25.32,4.6,15.05,5.27,21.16,17.44,21.26,32.79.16,22.82.05,45.64.05,68.46,0,10.33.59,10.93,10.98,11.17.83.02,1.65.12,2.86.21v15.64c-18.86,3.9-27.09-.14-33.09-16.58-6.28,8.29-13.94,14.34-23.79,17.29-14.04,4.2-28,3.81-41.62-1.36-13.09-4.98-20.78-14.65-22.23-28.74-1.61-15.68,3-28.64,17.26-36.96,10.46-6.1,22.12-7.87,33.9-9.22,7.59-.87,15.26-1.52,22.71-3.12,8.81-1.89,13.02-7.48,13.17-15.78.2-10.53-3.41-16.49-12.45-19.08-11.44-3.28-23.08-3.2-34.48.1-11.21,3.25-14.32,12.42-15.36,23.36ZM1029.59,267.71c-10.14,1.63-20.26,3.07-30.29,4.93-8.13,1.51-16.45,2.72-24.17,5.51-8.87,3.21-12.24,10.44-11.55,20.51.63,9.1,5.15,15.83,14.08,17.76,6.82,1.47,14.23,1.82,21.14.89,16.46-2.22,28.23-13.75,30.62-29.78,1.02-6.83.17-13.93.17-19.81Z"></path>
      <path d="M1193.39,246.32c-6.61,0-12.43.15-18.22-.13-1.11-.06-2.71-1.67-3.1-2.88-5.51-16.9-16.12-25.35-33.04-26.07-16.91-.72-30.13,7.52-36.2,23.56-6.8,17.97-6.89,36.33.54,54.07,12.14,28.98,48.35,27.97,62.03,9.78,3.61-4.8,5.7-10.76,8.76-16.71h19.11c-.31,2.14-.42,4.06-.87,5.9-7.56,31.26-35.04,44.26-61.92,41.33-32.45-3.54-49.17-28.07-52.61-55.19-1.79-14.1-.91-27.93,3.7-41.38,9.19-26.79,32.47-41.81,60.7-39.36,26.87,2.33,44.2,16.46,50.16,40.97.42,1.74.57,3.54.97,6.14Z"></path>
      <path d="M886.91,201.99c0-6.24-.25-11.87.05-17.46.63-11.45,3.7-22.25,14.75-27.62,6.21-3.02,13.62-3.81,20.59-4.95,4.2-.69,8.61-.13,13.29-.13v17.74c-3.98,0-8.07-.07-12.16.01-9.45.2-15.43,5.38-16.29,14.8-.51,5.58-.09,11.25-.09,17.37h27.41v17.56h-27.29v112.85h-20.15v-112.35h-21.5v-17.82h21.39Z"></path>
      <path d="M672.74,219.68h-21.34v-17.69h21.35v-36.6h19.95v36.47h26.58v17.71h-26.21c-.09,1.93-.21,3.38-.21,4.83-.01,25.99-.03,51.98,0,77.97,0,8.96,2.95,12.22,12.1,12.93,4.63.36,9.3.06,14.73.06,0,3.17,0,5.93,0,8.69s0,5.26,0,9.23c-10.07-.69-19.77-.46-29.09-2.21-11.38-2.14-17.6-10.49-17.7-22.23-.23-27.49-.13-54.98-.16-82.47,0-1.98,0-3.96,0-6.7Z"></path>
      <path d="M1222.92,219.52h-20.98v-17.5h20.98v-36.6h19.92v36.44h26.89v17.54h-26.45c-.1,2.03-.23,3.62-.24,5.21-.01,25.66-.03,51.32,0,76.99,0,9.83,3.15,13.22,12.99,13.78,4.45.25,8.92.04,13.64.04v17.01c-11.12.19-22.38,1.9-33.19-2.8-10.55-4.59-13.48-13.62-13.52-24.07-.08-26.66-.03-53.32-.03-79.99,0-1.8,0-3.6,0-6.05Z"></path>
      <path d="M590.71,223.83c18.73-20.53,31.65-26.54,48.86-23.09v18.13c-6.62.85-13.27,1.15-19.65,2.64-17.83,4.15-27.83,16.83-27.95,35.13-.14,23.31-.04,46.63-.04,69.94,0,1.8,0,3.59,0,5.68h-19.81v-129.85h18.59v21.41Z"></path>
      <path class="cls-1" d="M238.48,283.6c-12.72.3-22.55-4.99-32.1-10.8-14.54-8.83-27.08-19.87-36.05-34.52-7.66-12.52-6.47-25.06,3.16-36.25,12.31-14.31,28.06-23.93,44.88-31.66,11.43-5.25,23.4-9.45,35.42-13.23,6.06-1.9,12.73-2.29,19.15-2.48,6.87-.21,9.95,3.59,7.44,9.95-3.38,8.58-8.07,16.65-12.29,24.89-1.36,2.66-2.99,5.18-4.57,7.72-8.66,13.95-6.17,28.66-3.09,43.45,1.05,5.03,2.15,10.09,2.62,15.19,1.65,17.75-7.76,27.84-24.58,27.74Z"></path>
      <path class="cls-1" d="M501.26,260.6h-66.41c10.87-28.24,21.59-56.07,32.75-85.07,11.38,28.78,22.38,56.58,33.65,85.07Z"></path>
      <g>
        <path d="M1277.33,159.82c-.02-16.59,13.41-30.07,29.92-30.24,16.96-.18,30.78,13.65,30.58,30.62-.19,16.55-13.8,30.1-30.66,29.89-16.49-.21-29.89-13.69-29.85-30.27ZM1332.24,159.83c0-13.55-10.99-24.59-24.52-24.66-13.65-.08-24.74,10.97-24.81,24.52-.07,13.64,10.97,24.73,24.53,24.81,13.68.07,24.81-11.04,24.8-24.66Z"></path>
        <path d="M1320.21,176.48h-.18c-1.93,0-3.87,0-5.8,0-.16,0-.23-.05-.29-.19-.46-1.12-.79-2.27-1.09-3.44-.42-1.65-.81-3.32-1.22-4.97-.18-.74-.43-1.45-.75-2.13-.75-1.58-1.99-2.5-3.73-2.73-.49-.07-.99-.1-1.49-.11-.86-.02-1.71,0-2.57,0-.07,0-.14,0-.23,0v13.57h-5.99c0-.08,0-.14,0-.21,0-10.73,0-21.45,0-32.18,0-.17.05-.22.21-.25,2.66-.42,5.33-.6,8.02-.64,1.54-.02,3.09,0,4.62.19,1.76.22,3.46.6,5.03,1.46,2.32,1.27,3.68,3.23,4.13,5.83.31,1.8.18,3.57-.57,5.26-.86,1.93-2.29,3.34-4.15,4.32-.32.17-.67.3-1,.45-.04.02-.1.07-.1.11,0,.04.05.09.1.11,1.56.63,2.59,1.81,3.36,3.26.62,1.18.99,2.45,1.31,3.73.57,2.24,1.15,4.48,1.75,6.71.17.62.42,1.22.64,1.85ZM1302.85,158.47c.07,0,.11.01.16.01,1.15,0,2.31,0,3.46,0,1.11,0,2.2-.16,3.24-.58,1.47-.6,2.55-1.58,3.06-3.11.39-1.16.37-2.33.04-3.5-.3-1.04-.91-1.86-1.81-2.46-.63-.42-1.32-.7-2.05-.83-.66-.12-1.33-.21-2-.24-1.28-.04-2.57,0-3.84.22-.19.03-.25.1-.25.3,0,3.31,0,6.63,0,9.94,0,.07,0,.15,0,.24Z"></path>
        <path class="cls-1" d="M1302.85,158.47c0-.09,0-.17,0-.24,0-3.31,0-6.63,0-9.94,0-.2.06-.27.25-.3,1.27-.22,2.56-.27,3.84-.22.67.02,1.34.12,2,.24.74.13,1.42.42,2.05.83.9.6,1.51,1.42,1.81,2.46.33,1.17.35,2.34-.04,3.5-.51,1.53-1.6,2.52-3.06,3.11-1.04.42-2.12.57-3.24.58-1.15,0-2.31,0-3.46,0-.04,0-.09,0-.16-.01Z"></path>
      </g>
    </g>
  </g>
</svg>
