<?xml version="1.0" encoding="UTF-8"?>
<svg xmlns="http://www.w3.org/2000/svg" version="1.1" viewBox="0 0 1417.32 481.89">
  <!-- Generator: Adobe Illustrator 28.7.4, SVG Export Plug-In . SVG Version: 1.2.0 Build 166)  -->
  <g>
    <g id="Calque_1">
      <g>
        <path d="M1393.16,179.87c-18.25-4.99-36.86-7-56.61-7.27,1.37,48.29-1.97,96.28,2.44,144.56h-24.15c4.43-47.9.93-96,2.42-144.5-19.26.07-37.56,2.27-56.32,7.04,1.03-5.94,1.98-11.48,2.96-17.14h125.85c1.08,4.96,2.24,10.32,3.41,15.68v1.63Z"></path>
        <path d="M1245.32,241.39c-.01,44.48-35.99,80.03-80.95,80-44.33-.03-80.01-35.99-79.97-80.59.03-44.03,36.07-79.85,80.35-79.86,44.73-.01,80.59,35.79,80.57,80.45ZM1221.82,242.3c-.35-16.59-3.24-32.22-12.11-46.26-21.93-34.7-71.51-33.68-91.73,1.92-5.54,9.74-8.42,20.34-9.42,31.44-1.79,19.95.36,39.26,11.35,56.58,11.59,18.26,28.57,26.87,50.17,25.38,19.94-1.38,34.04-11.86,43.05-29.45,6.42-12.54,8.33-26.06,8.69-39.6Z"></path>
        <path d="M520.72,163.13c-4.33,23.17-2.55,46.18-3.01,70,6.6,0,12.82.08,19.03-.02,20.46-.32,40.92-.73,61.38-1.04,2.34-.04,3.87-.24,3.78-3.25-.58-18.77-.96-37.54-1.56-56.31-.1-3.08-.94-6.14-1.48-9.45h24.77c-3.15,51.4-2.94,102.67-.12,154.22h-24.53c4.29-24.29,2.41-48.62,2.93-73.49h-84.2c.52,24.45-1.46,48.91,2.89,73.48h-24.58c3.02-51.35,2.97-102.61,0-154.15h24.69Z"></path>
        <path d="M29.03,162.66c16.86,0,34.58-.97,52.14.31,13.82,1.01,25.16,8.22,30.91,21.66,8.47,19.78-.29,40.4-20.16,48.34-.98.39-1.97.78-3.79,1.5,2.87.75,4.95,1.22,7,1.83,13.44,4,24.96,10.53,30.26,24.43,9.26,24.25-4.42,48.85-30.72,55.64-14.35,3.71-28.89,3.27-43.49,2.22-7.59-.55-15.19-.89-22.1-1.29,2.97-51.37,2.99-102.6-.06-154.64ZM52.54,310.48c7.88,0,15.52.59,23.04-.12,16.34-1.56,25.76-9.13,28.77-23.23,1.26-5.89,1.61-12.2,1.07-18.21-1.21-13.62-9.71-22.91-23.12-26.26-10.4-2.6-20.81-1.31-31.57.23.45,22.27-1.02,44.4,1.8,67.59ZM50.79,232.91c6.13,0,11.91.61,17.51-.13,11.3-1.5,19.39-7.73,23.2-18.63,3.08-8.83,3.12-17.89.47-26.87-3.04-10.29-9.92-16.69-20.59-17.69-5.99-.56-12.17.62-18.24,1.27-.86.09-2.24,1.63-2.25,2.51-.13,19.71-.1,39.42-.1,59.55Z"></path>
        <path d="M863.39,317.27h-24.54c2.89-51.35,2.83-102.4.03-154.18-.72.56-.51.26-.3.25,16.2-.5,32.4-1.47,48.59-1.29,11.57.13,22.24,4.11,30.82,12.31,14.89,14.25,16.21,41.48,2.28,58.24-4.68,5.63-11.01,9.9-16.95,15.11.01.02.59,1.05,1.27,2,12.09,16.97,23.99,34.08,36.38,50.83,4.52,6.1,10.19,11.35,15.17,16.8.06,0-.81.18-1.68.18-8.05.02-16.11.11-24.15-.08-1.29-.03-3.04-.97-3.75-2.04-3.07-4.63-5.57-9.65-8.76-14.2-10.94-15.62-22.13-31.06-33.07-46.67-1.56-2.22-3.13-2.77-5.71-2.66-5.95.25-11.92.08-18.39.08.49,21.69-1.4,43.43,2.76,65.29ZM860.38,243.53c6.12,0,11.7.37,17.21-.07,13.98-1.13,24.16-9.56,28.28-22.9,3.1-10.03,3.09-20.15.49-30.22-3.25-12.6-12.32-20.48-24.55-20.95-5.68-.22-11.4.74-17.1,1.12-3.35.22-4.46,1.73-4.42,5.24.19,19.88.09,39.77.09,59.65,0,2.3,0,4.61,0,8.14Z"></path>
        <path d="M465.18,282.84c.2,1.24.9,2.67.52,3.7-2.18,6-4.56,11.93-7.02,17.83-.48,1.16-1.43,2.38-2.5,2.99-27.48,15.69-56.37,19.48-86,7.63-21.54-8.61-34.57-25.71-40.08-48.01-6.71-27.13-4.06-53.14,12.88-76.25,22.22-30.31,69.12-39.15,101.21-19.5,10.59,6.48,17.46,15.46,18.43,28.23.62,8.12-3.59,14.76-10.93,17.18-7.49,2.47-15.5-.47-19.53-7.16-4.01-6.65-2.87-15.07,2.78-20.6,3.17-3.1,3.32-4.75-.1-8.08-7.31-7.11-16.44-10.05-26.4-10.3-27.58-.71-48.77,15.97-54.73,43-4.53,20.55-3.87,40.88,3.97,60.55,8.2,20.58,22.82,34.28,45.34,37.18,23.8,3.07,43.33-5.43,58.08-24.47.91-1.18,1.75-2.42,2.62-3.63.49-.09.98-.19,1.47-.28Z"></path>
        <path d="M808.02,317.76h-29.23c1.2-10.02-2.95-18.49-6.78-27.05-6.04-13.51-12.07-27.02-18.05-40.42-15.36,4.76-30.54,9.07-45.45,14.19-13.37,4.59-22.54,13.78-27.24,27.37-2.88,8.34-7.11,16.31-5.29,25.85h-21.23c3.71-7.46,7.67-14.81,11.11-22.4,19.84-43.71,39.6-87.46,59.23-131.27,1.52-3.39,3.52-3.87,6.82-4.07,3.6-.22,4.65,1.65,5.81,4.27,19.68,44.23,39.34,88.47,59.18,132.63,3.17,7.05,7.24,13.7,11.1,20.91ZM748.85,238.62c-7.4-16.67-14.52-32.69-21.95-49.41-9.89,22.84-19.41,44.85-28.58,66.03,16.52-5.43,33.33-10.96,50.53-16.61Z"></path>
        <path d="M987.23,317.77c3.06-52.06,3.16-103.23-.05-154.93h24.53c-.67,5.94-1.62,11.53-1.87,17.15-.48,10.6-.73,21.22-.76,31.83-.1,30.37-.03,60.74-.03,91.11v5.05c19.87,0,39.22-2.34,58.96-7.07-1.04,5.93-2.04,11.57-2.97,16.86h-77.8Z"></path>
        <path d="M142.21,164.24h22.57c3.11,5.67,5.45,10.82,8.57,15.44,5.1,7.55,10.71,14.76,16.6,22.78,7.86-13.01,18.16-23.94,24.23-38.25h17.48c-.54,2.02-.54,3.91-1.44,5.13-9.76,13.24-19.55,26.47-29.6,39.5-3.09,4-4.46,8.07-4.12,13.09.76,11.38,1.14,22.78,1.79,34.17.13,2.25-.15,3.74-2.86,3.71-5.84-.05-11.69-.02-17.9-.02,0-1.47-.05-2.77,0-4.06.56-12.49,1.19-24.97,1.62-37.46.05-1.45-.75-3.15-1.64-4.38-8.82-12.11-17.71-24.17-26.69-36.16-1.86-2.49-4.33-4.51-6.33-6.91-1.38-1.65-2.43-3.58-3.63-5.39.45-.4.9-.8,1.35-1.2Z"></path>
        <path d="M282.7,240.98c-.05,9.18-7.25,16.24-16.41,16.1-9.13-.13-16.42-7.52-16.26-16.47.17-9.01,7.68-16.32,16.63-16.17,9.22.16,16.09,7.24,16.04,16.53Z"></path>
      </g>
    </g>
  </g>
</svg>
