<?xml version="1.0" encoding="UTF-8"?>
<svg xmlns="http://www.w3.org/2000/svg" xmlns:xlink="http://www.w3.org/1999/xlink" version="1.1" viewBox="0 0 1417.32 481.89">
  <defs>
    <style>
      .cls-1 {
        fill: none;
      }

      .cls-2 {
        clip-path: url(#clippath);
      }
    </style>
    <clipPath id="clippath">
      <rect class="cls-1" x="39.19" y="108.78" width="1338.94" height="263.32"></rect>
    </clipPath>
  </defs>
  <!-- Generator: Adobe Illustrator 28.7.4, SVG Export Plug-In . SVG Version: 1.2.0 Build 166)  -->
  <g>
    <g id="Calque_1">
      <g class="cls-2">
        <g>
          <path d="M426.55,372.12c-46.19,0-68.24-29.81-66.15-89.46h58.46c-1.87,22.13,1.41,33.17,9.79,33.17,2.82,0,5.18-1.32,7.16-3.95,1.98-2.63,2.97-6.36,2.97-11.19v-.73c0-2.41-.3-4.68-.88-6.84s-1.22-4.1-1.94-5.78c-.69-1.68-1.94-3.55-3.66-5.6-1.75-2.05-3.16-3.66-4.19-4.86-1.07-1.21-2.82-2.89-5.26-5.05-2.44-2.16-4.27-3.66-5.41-4.5-1.18-.84-3.31-2.41-6.47-4.68-3.16-2.27-5.18-3.8-6.13-4.5-27.08-20.66-40.59-46.05-40.59-76.11v-7.57c0-19.49,6.28-35.29,18.89-47.44,12.61-12.14,29.28-18.21,50.04-18.21,21.93,0,38.69,7.35,50.23,22.02,11.54,14.67,16.87,35,15.92,60.97h-57.73c.69-17.81-2.82-26.7-10.51-26.7-5.6,0-8.42,3.47-8.42,10.46v.73c0,2.16.31,4.28.88,6.33.57,2.05,1.68,4.13,3.31,6.33,1.64,2.16,3.05,3.91,4.19,5.23,1.18,1.32,3.16,3.15,5.94,5.41,2.82,2.3,4.72,3.84,5.79,4.68,1.07.84,3.31,2.45,6.82,4.86s5.48,3.84,5.94,4.32c15.16,11.3,26.47,22.53,33.97,33.72,7.46,11.19,11.2,26.88,11.2,47.07v6.51c0,21.18-6.89,38.37-20.64,51.57-13.79,13.24-31.61,19.82-53.54,19.82l.04-.04Z"></path>
          <path d="M103.21,308.04h57.16v59.98H39.19V112h120.11v59.98h-56.09v39.13h52.86v58.88h-52.86v38.04Z"></path>
          <path d="M312.2,112v60.71h-38.46v195.31h-64.01v-195.31h-37.74v-60.71h140.22Z"></path>
          <path d="M586.8,368.02c-22.28,0-39.72-6.25-52.32-18.8-12.57-12.55-18.89-30.72-18.89-54.61V112h64.01v184.04c0,9.07,2.63,13.61,7.92,13.61s7.92-4.54,7.92-13.61V112h64.01v182.61c0,23.88-6.47,42.06-19.42,54.61-12.95,12.55-30.69,18.8-53.2,18.8h-.04Z"></path>
          <path d="M672.37,368.02v-49.01l58.61-145.93v-.37h-55.37v-60.71h129.09v49.01l-58.26,145.93v.37h58.26v60.71h-132.33Z"></path>
          <path d="M885.36,308.04h57.17v59.98h-121.18V112h120.07v59.98h-56.09v39.13h52.86v58.88h-52.86v38.04h.04Z"></path>
          <path d="M1094.35,112v60.71h-38.46v195.31h-64.02v-195.31h-37.74v-60.71h140.22Z"></path>
          <path d="M1245.12,112v60.71h-38.46v195.31h-64.02v-195.31h-37.74v-60.71h140.22Z"></path>
          <path d="M1320.97,308.04h57.16v59.98h-121.17V112h120.07v59.98h-56.09v39.13h52.85v58.88h-52.85v38.04h.04Z"></path>
        </g>
      </g>
    </g>
  </g>
</svg>
