<?xml version="1.0" encoding="UTF-8"?>
<svg xmlns="http://www.w3.org/2000/svg" version="1.1" viewBox="0 0 1417.32 481.89">
  <defs>
    <style>
      .cls-1 {
        fill: #010101;
      }
    </style>
  </defs>
  <!-- Generator: Adobe Illustrator 28.7.4, SVG Export Plug-In . SVG Version: 1.2.0 Build 166)  -->
  <g>
    <g id="Calque_1">
      <g>
        <path class="cls-1" d="M67.28,458.72l28.14-7.16V143.11l-28.64,2.04v-7.67l85.43-20.98,3.07,2.56v69.56h2.56c14.83-38.36,39.38-72.12,87.99-72.12,51.14,0,80.31,41.43,80.31,115.61,0,94.63-48.09,138.62-105.88,138.62-25.58,0-48.09-8.18-62.93-23.53v104.36l27.63,7.16v7.67h-117.66v-7.67ZM260.64,238.77c0-69.06-16.88-89.52-42.46-89.52-29.67,0-50.63,28.14-60.88,72.64v108.96c10.75,11.25,26.6,20.46,45.53,20.46,38.89,0,57.81-38.88,57.81-112.54Z"></path>
        <path class="cls-1" d="M568.04,278.15c0,49.62-33.76,92.59-100.25,92.59-77.25,0-119.7-50.64-119.7-124.3,0-82.36,50.63-129.42,126.34-129.42,54.74,0,91.05,30.18,91.05,90.54,0,7.16-.51,13.3-1.53,19.95h-150.38v10.74c0,71.62,32.22,100.26,79.28,100.26,43.99,0,66.5-30.69,66.5-67.52v-1.53h7.67c.52,2.05,1.03,4.61,1.03,8.69ZM414.58,216.26h94.12c1.03-7.16,1.55-12.28,1.55-23.02,0-36.83-7.16-64.46-34.28-64.46-37.34,0-56.77,39.39-61.38,87.47Z"></path>
        <path class="cls-1" d="M579.79,458.72l28.14-7.16V143.11l-28.64,2.04v-7.67l85.43-20.98,3.07,2.56v69.56h2.56c14.83-38.36,39.38-72.12,87.99-72.12,51.14,0,80.31,41.43,80.31,115.61,0,94.63-48.09,138.62-105.88,138.62-25.58,0-48.09-8.18-62.93-23.53v104.36l27.63,7.16v7.67h-117.66v-7.67ZM773.15,238.77c0-69.06-16.88-89.52-42.46-89.52-29.67,0-50.63,28.14-60.88,72.64v108.96c10.75,11.25,26.6,20.46,45.53,20.46,38.89,0,57.81-38.88,57.81-112.54Z"></path>
        <path class="cls-1" d="M855.49,356.42l28.14-7.16v-206.14l-28.64,2.04v-7.67l86.44-21.49,3.08,2.05v231.21l28.12,7.16v7.67h-117.14v-7.67ZM872.87,51.03c0-19.44,15.86-34.79,35.3-34.79s35.3,15.35,35.3,34.79-15.35,36.32-35.3,36.32c-19.44-.51-35.3-16.37-35.3-36.32Z"></path>
        <path class="cls-1" d="M983.86,356.42l27.63-7.16v-205.64l-28.14,1.53v-6.65l85.43-21.48,2.56,2.05v70.08h3.07c11.25-30.69,42.46-72.12,97.71-72.12,60.86,0,63.42,55.24,63.42,91.57v140.67l27.62,7.16v7.67h-117.64v-7.67l28.14-7.16v-148.85c0-37.85-8.71-51.15-32.74-51.15-36.33,0-58.32,35.3-67.53,70.08v129.93l28.14,7.16v7.67h-117.66v-7.67Z"></path>
        <path class="cls-1" d="M1283.6,336.98c0-17.9,14.32-32.74,33.24-32.74s33.26,14.84,33.26,32.74c0,19.44-14.84,33.76-33.26,33.76s-33.24-14.32-33.24-33.76Z"></path>
      </g>
    </g>
  </g>
</svg>
