<?xml version="1.0" encoding="UTF-8"?>
<svg xmlns="http://www.w3.org/2000/svg" xmlns:xlink="http://www.w3.org/1999/xlink" version="1.1" viewBox="0 0 1417.32 481.89">
  <defs>
    <style>
      .cls-1 {
        fill: none;
      }

      .cls-2 {
        fill: #211d1d;
      }

      .cls-3 {
        clip-path: url(#clippath);
      }
    </style>
    <clipPath id="clippath">
      <rect class="cls-1" x="-234.23" y="-425.43" width="1881.66" height="1330.47"></rect>
    </clipPath>
  </defs>
  <!-- Generator: Adobe Illustrator 28.7.4, SVG Export Plug-In . SVG Version: 1.2.0 Build 166)  -->
  <g>
    <g id="Calque_1">
      <g class="cls-3">
        <path class="cls-2" d="M1222.76,337.9v-88.48c0-25.43,17.34-42.52,42.64-42.52,21.76,0,31.4,10.16,31.4,33.96v97.04h12.34v-98.4c0-29.81-14.25-44.3-43.8-44.3-19.5,0-34.48,9.21-43.59,26.67l-1.51,2.86-.76-3.13c-4.44-17.03-17.97-26.4-38.21-26.4-6.22,0-11.97,1.01-17.19,2.91-21.37,7.12-27.7,23.24-27.7,23.24v-20.94h-14.08v137.49h14.08v-87.41c0-25.64,16.98-43.59,42.05-43.59,20.42,0,30.23,11.97,30.23,35.56v95.44h14.1ZM929.3,206.15c25.74,0,42.55,19.76,43.91,50.42h-89.13c1.61-30.2,19.37-50.42,45.22-50.42M971.67,295.58c-3.67,19.39-20.84,31.42-42.62,31.42-28.44,0-47.14-22.79-47.14-56.97v-.89h104.01v-5.29c0-43.96-20.61-68.97-57-68.97s-59.08,27.1-59.08,72.25,22.1,71.51,59.11,71.51c30.41,0,52.33-16.62,56.27-43.06h-13.54ZM828.7,258.51c0-32.95,14.84-49.29,43.06-49.29h1v-12.35h-.73c-14.3,0-25.26,3.71-33.36,11.97-5.7,4.94-9.64,11.72-11.73,15.94v-24.37h-12.33v137.49h14.1v-79.39ZM270.36,313.99c-25.15,0-39.22-17.32-39.22-49.79s14.07-50.01,39.22-50.01,38.93,17.3,38.93,50.01-14.05,49.79-38.93,49.79M270.09,188.21c-43.55,0-69.78,28.12-69.78,75.99s26.51,75.75,70.05,75.75,69.8-28.13,69.8-75.75-26.53-75.99-70.07-75.99M1018.02,279.43c1.49-1.36,3.09-2.58,4.79-3.66,2.14-1.23,13.88-7.38,33.12-8.69,14.32-1.01,25.64-2.44,34.17-5.74l1.68-.63.19,13.92-.05.03.04.42.04,3.65.07,3.14c-.02.1-.02.2-.02.28,0,.57-.06,1.1-.08,1.65-.2,3.5-.84,8.43-2.62,13.68-4.2,11.45-14.11,23.72-36.78,27.66-3.49.5-7.02.76-10.55.75-19.7,0-32.44-10.75-32.44-27.38,0-4.43.99-8.43,2.93-12.06.17-.31.33-.63.51-.9.13-.22.29-.44.42-.68.94-1.45,2.01-2.82,3.19-4.09.18-.18.36-.36.54-.55.27-.27.56-.54.84-.81M995.56,298.79c0,23.88,16.93,38.73,44.2,38.73,19.38,0,36.42-7.75,50.15-23.05l2.42-2.43v5.4c0,10.15,3.53,18.86,12.33,20.45v-102.58c0-26.54-16.75-40.39-48.95-40.39s-52.01,17.82-53.18,42.51h13.25c1.51-19.4,14.72-30.89,40.38-30.89s35.64,8.92,35.64,31.2c0,12.09-3.94,14.54-15.02,16.97-8.14,1.74-19.97,2.86-24.06,3.22-.39.02-.78.05-1.18.09-.17,0-.28,0-.28,0v.02c-12.34,1.03-23.96,2.5-34.3,7.2-14.01,6.49-21.41,18.07-21.41,33.53M418.98,313.44c-22.98,0-37.33-17.59-37.33-48.42,0-32.45,14.34-50.3,37.33-50.3,24.61,0,37.86,16.5,37.86,48.4s-13.51,50.32-37.86,50.32M456.82,210.39c-10.57-14.89-25.41-22.19-44.62-22.19-34.88,0-60.97,29.21-60.97,76.54s25.49,75.2,61.16,75.2c18.68,0,32.07-7.32,44.42-23.28v21.23h28.21v-195.66h-28.21v68.15ZM144.75,250.14l-18.11-4.05c-15.44-3.52-23.82-7.84-23.82-18.12,0-8.66,8.11-14.7,24.07-14.7,18.66,0,29.22,8.29,30.02,22.39h29.49c0-28.21-22.2-46.71-58.42-46.71s-55.7,17.49-55.7,44c0,23.26,14.61,33.35,44.36,40.65l21.36,5.3c14.06,3.53,22.17,7,22.17,17.26,0,11.1-10.28,19.52-28.68,19.52-21.08,0-32.17-7.75-33.54-25.39h-29.73c0,31.73,21.64,50.25,60.57,50.25s61.67-18.41,61.67-47.91c0-26.23-15.41-35.45-45.71-42.49M590.44,281.78c0,20.29-16.91,33.82-38.56,33.82-14.87,0-23.05-7.58-23.05-20.56,0-11.63,6.46-18.65,20.53-21.36,14.05-2.72,28.75-3.24,41.08-9.74v17.85ZM563.66,188.21c-36.79,0-57.84,18.11-57.84,45.98v3.24h28.21v-1.9c0-14.31,9.79-22.43,28.45-22.43,19.75,0,29.11,6.21,29.11,20s-6.55,13.52-31.68,16.79c-38.14,4.84-60.61,14.04-60.61,47.86,0,25.96,16.76,42.2,45.96,42.2,18.65,0,35.7-8.41,47.34-23.54.26,14.61,8.58,21.62,26.97,21.62.38,0,.82-.03.82-.03v-107.6c0-27.86-18.89-42.2-56.74-42.2M796.96,324.64c-3.52,1.11-9.65,2.32-13.75,2.32-10.17,0-10.92-6.41-10.92-16.18v-99.81h24.67v-10.56h-24.67v-52.88h-14.1v163.25c0,19.99,4.77,26.74,20.45,26.74,5.53,0,11.26-.91,18.31-2.65v-10.23ZM700.66,261.63c-2.52-.62-4.93-1.15-7.26-1.71-24.16-5.65-38.76-9.02-38.76-28.5,0-14.93,12.62-24.46,32.18-24.46,22.13,0,35.6,11.08,37.16,30.48h14.01c-2.32-26.45-20.8-42.1-50.9-42.1-27.81,0-46.49,15.33-46.49,38.37s15.1,30.28,48.91,38.46l.76.27c24.2,5.78,37.53,9.14,37.53,27.01,0,16.72-15.06,27.85-38.3,27.85-20.81,0-36.79-14.09-37.75-31.72h-14.02c1.38,26.44,21.87,43.31,52.57,43.31s51.54-15.88,51.54-39.03c0-20.52-10.8-30.79-41.18-38.24M1333.85,210.77c2.85,0,5.67-.1,5.67-3.31,0-2.63-2.2-3.25-4.49-3.25h-4.26v6.55h3.08ZM1330.77,221.12h-2.31v-18.88h7.25c4.25,0,6.13,1.84,6.13,5.22s-2.17,4.83-4.74,5.28l5.63,8.38h-2.73l-5.31-8.38h-3.92v8.38ZM1320.59,211.68c0,7.82,5.89,14.01,13.79,14.01s13.79-6.19,13.79-14.01-5.88-13.99-13.79-13.99-13.79,6.18-13.79,13.99M1350.72,211.68c0,9.19-7.11,16.34-16.34,16.34s-16.35-7.15-16.35-16.34,7.12-16.33,16.35-16.33,16.34,7.16,16.34,16.33"></path>
      </g>
    </g>
  </g>
</svg>
