<?xml version="1.0" encoding="UTF-8"?>
<svg xmlns="http://www.w3.org/2000/svg" version="1.1" viewBox="0 0 1417.32 481.89">
  <!-- Generator: Adobe Illustrator 28.7.4, SVG Export Plug-In . SVG Version: 1.2.0 Build 166)  -->
  <g>
    <g id="Calque_1">
      <path d="M110.07,400.08v-204.55H11.66v-45.77h244.78v45.77h-98.41v204.55h-47.95Z"></path>
      <path d="M309.78,400.08v-250.33h84.46c58.69,0,90.18,26.11,90.18,74.74,0,34.69-17.89,52.93-39.01,62.22l49.03,113.36h-50.82l-41.87-97.27h-44.02v97.27h-47.95ZM391.02,191.95h-33.28v65.08h31.49c34.71,0,44.38-12.87,44.38-32.54,0-22.53-14.67-32.54-42.59-32.54Z"></path>
      <path d="M562.1,400.08v-250.33h166.77v44.34h-118.81v57.93h85.89v44.34h-85.89v59.36h127.4v44.34h-175.35Z"></path>
      <path d="M790.36,214.12c0-39.34,28.99-69.73,79.09-69.73,34,0,59.76,15.38,75.87,41.13l-30.42,28.25c-9.66-12.87-23.98-27.89-47.6-27.89-20.04,0-30.42,10.73-30.42,24.32,0,15.38,10.38,22.89,51.89,40.77,47.6,20.74,62.27,45.06,62.27,78.67,0,41.84-30.42,75.81-81.95,75.81-39.01,0-68.71-17.88-89.11-47.92l31.13-30.04c14.67,17.17,32.21,33.62,57.97,33.62,22.55,0,35.43-12.16,35.43-27.18,0-12.16-3.22-26.1-44.38-43.27-35.79-15.02-69.78-35.76-69.78-76.53Z"></path>
      <path d="M1003.89,214.12c0-39.34,28.99-69.73,79.09-69.73,34,0,59.76,15.38,75.87,41.13l-30.42,28.25c-9.66-12.87-23.98-27.89-47.6-27.89-20.04,0-30.42,10.73-30.42,24.32,0,15.38,10.38,22.89,51.89,40.77,47.6,20.74,62.27,45.06,62.27,78.67,0,41.84-30.42,75.81-81.95,75.81-39.01,0-68.71-17.88-89.11-47.92l31.14-30.04c14.67,17.17,32.21,33.62,57.97,33.62,22.55,0,35.43-12.16,35.43-27.18,0-12.16-3.22-26.1-44.38-43.27-35.78-15.02-69.78-35.76-69.78-76.53Z"></path>
      <path d="M1337.67,130.09h-47.96l38.65-53.64h47.95l-38.64,53.64ZM1230.31,400.08v-250.33h166.76v44.34h-118.81v57.93h85.89v44.34h-85.89v59.36h127.4v44.34h-175.35Z"></path>
    </g>
  </g>
</svg>
